<svg xmlns="http://www.w3.org/2000/svg" viewBox="0 0 1252.12 808.92"><defs><style>.cls-1{fill:#f0f9fc;}.cls-2{fill:#fff;}.cls-3{fill:#6a79a8;}.cls-4{fill:#bbdff5;}.cls-5{fill:#ff9c81;}</style></defs><g id="Layer_2" data-name="Layer 2"><g id="Ñëîé_3" data-name="Ñëîé 3"><path class="cls-1" d="M356.33,792.66c-25.56-4.1-332.72-41.07-310.11-313.74s51-354.66,170.41-384.66,409.7-172,637.49-37,473.59,256,376.05,471.56-113.51,287.42-368,276.42S477.9,812.18,356.33,792.66Z"/><path class="cls-2" d="M1169.86,328.26H826.46a28,28,0,0,1-27.91-27.91h0a28,28,0,0,1,27.91-27.91h343.4a28,28,0,0,1,27.91,27.91h0A28,28,0,0,1,1169.86,328.26Z"/><path class="cls-2" d="M1203.4,253.17H1062a22.32,22.32,0,0,1-22.26-22.26h0A22.33,22.33,0,0,1,1062,208.65H1203.4a22.32,22.32,0,0,1,22.26,22.26h0A22.32,22.32,0,0,1,1203.4,253.17Z"/><path class="cls-2" d="M1229.86,390.06H1088.44a22.33,22.33,0,0,1-22.26-22.26h0a22.33,22.33,0,0,1,22.26-22.26h141.42a22.32,22.32,0,0,1,22.26,22.26h0A22.32,22.32,0,0,1,1229.86,390.06Z"/><path class="cls-2" d="M1155.58,347.31c-6.9,0-12.49-4.26-12.49-9.52s5.59-9.53,12.49-9.53h-54.47c6.89,0,12.48,4.27,12.48,9.53s-5.59,9.52-12.48,9.52Z"/><path class="cls-2" d="M1173.22,273.06c-7.19,0-13-4.45-13-9.94s5.84-10,13-10h-56.85c7.19,0,13,4.45,13,10s-5.84,9.94-13,9.94Z"/><path class="cls-2" d="M82.26,501.93H425.67a28,28,0,0,1,27.91,27.91h0a28,28,0,0,1-27.91,27.91H82.26a28,28,0,0,1-27.91-27.91h0A28,28,0,0,1,82.26,501.93Z"/><path class="cls-2" d="M48.72,577H190.14a22.33,22.33,0,0,1,22.26,22.26h0a22.32,22.32,0,0,1-22.26,22.26H48.72a22.32,22.32,0,0,1-22.26-22.26h0A22.33,22.33,0,0,1,48.72,577Z"/><path class="cls-2" d="M22.26,440.13H163.68a22.33,22.33,0,0,1,22.26,22.26h0a22.32,22.32,0,0,1-22.26,22.26H22.26A22.32,22.32,0,0,1,0,462.39H0A22.33,22.33,0,0,1,22.26,440.13Z"/><path class="cls-2" d="M96.55,482.88c6.89,0,12.48,4.27,12.48,9.53s-5.59,9.52-12.48,9.52H151c-6.89,0-12.48-4.26-12.48-9.52s5.59-9.53,12.48-9.53Z"/><path class="cls-2" d="M78.9,557.14c7.2,0,13,4.45,13,9.94S86.1,577,78.9,577h56.86c-7.2,0-13-4.45-13-9.94s5.83-9.94,13-9.94Z"/></g><g id="Ñëîé_4" data-name="Ñëîé 4"><path class="cls-2" d="M425.36,349.87V747.48A17.56,17.56,0,0,0,443,765H801.2a17.56,17.56,0,0,0,17.58-17.53v-62l-.29-34.16V273.76a17.56,17.56,0,0,0-17.58-17.53H519l-93.62,93.55Z"/><path class="cls-3" d="M443,767a19.58,19.58,0,0,1-19.59-19.52V349.74a2,2,0,0,1,.58-1.37l93.62-93.54a2,2,0,0,1,1.41-.59H800.89a19.58,19.58,0,0,1,19.58,19.53V651.34l.29,34.14v62A19.58,19.58,0,0,1,801.2,767Zm-15.6-416.38V747.48A15.57,15.57,0,0,0,443,763H801.2a15.58,15.58,0,0,0,15.58-15.53v-62l-.29-34.14V273.76a15.58,15.58,0,0,0-15.58-15.53H519.81Zm-1.91-.75h0Z"/><path class="cls-3" d="M425.36,352.06a2,2,0,0,1-1.41-3.41l93.81-93.82a2,2,0,0,1,3.42,1.41V331.6a20.49,20.49,0,0,1-20.46,20.46Zm91.82-91-87,87h70.53a16.47,16.47,0,0,0,16.46-16.46Z"/><path class="cls-4" d="M700.69,538H535.6a3,3,0,0,1,0-6H700.69a3,3,0,0,1,0,6Z"/><path class="cls-3" d="M773.51,646.39H462.78a2,2,0,0,1,0-4H773.51a2,2,0,0,1,0,4Z"/><path class="cls-3" d="M773.51,602.65H462.78a2,2,0,1,1,0-4H773.51a2,2,0,0,1,0,4Z"/><path class="cls-3" d="M619.32,690.13H462.78a2,2,0,1,1,0-4H619.32a2,2,0,0,1,0,4Z"/><path class="cls-3" d="M560.79,446.89a2,2,0,0,1-1.41-.58,2,2,0,0,1,0-2.83c1-1,24-23.84,62.88-23.84s61.5,20.91,62.45,21.8a2,2,0,0,1-2.74,2.91c-.22-.21-22.52-20.71-59.71-20.71s-59.81,22.42-60,22.65A2,2,0,0,1,560.79,446.89Z"/><circle class="cls-3" cx="542.23" cy="394.25" r="9"/><circle class="cls-3" cx="699.46" cy="394.25" r="9"/><path class="cls-2" d="M598.43,191.4,334.81,222.87a17.24,17.24,0,0,1-19.17-15.08L300.88,84.17A17.25,17.25,0,0,1,316,65L579.58,33.53a17.24,17.24,0,0,1,19.17,15.08l14.76,123.61A17.25,17.25,0,0,1,598.43,191.4Z"/><path class="cls-5" d="M608.43,201.4,344.81,232.87a17.24,17.24,0,0,1-19.17-15.08L310.88,94.17A17.25,17.25,0,0,1,326,75L589.58,43.53a17.24,17.24,0,0,1,19.17,15.08l14.76,123.61A17.25,17.25,0,0,1,608.43,201.4Z"/><path class="cls-3" d="M332.75,225a19.28,19.28,0,0,1-19.1-17L298.9,84.41A19.24,19.24,0,0,1,315.73,63L579.34,31.54a19.27,19.27,0,0,1,21.4,16.83L615.5,172a19.25,19.25,0,0,1-16.84,21.39L335.05,224.85A17.86,17.86,0,0,1,332.75,225ZM581.64,35.4a15.87,15.87,0,0,0-1.82.11L316.2,67a15.25,15.25,0,0,0-13.33,17l14.76,123.62a15.26,15.26,0,0,0,16.95,13.33l263.61-31.47.24,2-.24-2a15.23,15.23,0,0,0,13.33-16.95L596.77,48.85A15.29,15.29,0,0,0,581.64,35.4Z"/><path class="cls-2" d="M386.65,173.78l-1.5-12.57-33.91,4q-6.42.77-10-1.76a10.17,10.17,0,0,1-4.16-7.52,7.74,7.74,0,0,1,.16-2.65,13.69,13.69,0,0,1,1.09-2.94c.52-1,1.06-2.06,1.63-3l2.1-3.61,30.09-52.17a55,55,0,0,1,5-7.55,7.68,7.68,0,0,1,5.18-2.78Q392.6,80,394,91.77l6.25,52.29,2.9-.35a20.69,20.69,0,0,1,8.52.43c2.2.69,3.5,2.64,3.88,5.84.31,2.61-.32,4.62-1.89,6s-4.06,2.3-7.48,2.71l-4.13.5,1.5,12.56q.63,5.2-1.37,8a8.66,8.66,0,0,1-12.27,1.4Q387.26,178.85,386.65,173.78ZM354.3,149.55l29.05-3.47-4.69-39.25Z"/><path class="cls-2" d="M491.33,120.72a116.35,116.35,0,0,1,.92,19.21A44.87,44.87,0,0,1,489,155a33.47,33.47,0,0,1-10.43,13.72,32.53,32.53,0,0,1-34.8,2.65,35.61,35.61,0,0,1-14.18-14.62,60.08,60.08,0,0,1-4.55-12,103.09,103.09,0,0,1-2.74-14.58,142.44,142.44,0,0,1-1.11-18.5,61.31,61.31,0,0,1,1.7-14.46,30.47,30.47,0,0,1,27.35-23.48,34.08,34.08,0,0,1,12.9.76,29.19,29.19,0,0,1,10.76,5.43,38.38,38.38,0,0,1,8.55,9.91Q488.88,100.31,491.33,120.72Zm-18.68.86a112.67,112.67,0,0,0-3.9-20.06q-2.43-7.69-6.42-11.3c-2.66-2.39-6.06-3.35-10.21-2.85q-8.91,1.06-11.32,10.46T440.63,126a119.67,119.67,0,0,0,4,20.63q2.44,7.92,6.46,11.66a13.15,13.15,0,0,0,19.24-2.46c2-3.17,3.14-7.48,3.45-13A126.12,126.12,0,0,0,472.65,121.58Z"/><path class="cls-2" d="M551.09,154.15l-1.5-12.57-33.91,4q-6.42.76-10-1.76a10.17,10.17,0,0,1-4.16-7.52,7.58,7.58,0,0,1,.17-2.66,13.47,13.47,0,0,1,1.08-2.94c.52-1,1.06-2.05,1.63-3l2.1-3.61,30.09-52.18a54.42,54.42,0,0,1,5-7.54,7.71,7.71,0,0,1,5.18-2.78Q557,60.38,558.44,72.14l6.24,52.29,2.9-.35a20.69,20.69,0,0,1,8.52.43c2.2.69,3.5,2.64,3.88,5.84q.46,3.92-1.89,6c-1.57,1.4-4.06,2.3-7.49,2.71l-4.12.49,1.5,12.57q.63,5.2-1.37,8a8.66,8.66,0,0,1-12.27,1.4C552.58,160,551.5,157.52,551.09,154.15Zm-32.35-24.24,29-3.46L543.1,87.19Z"/><path class="cls-3" d="M892.65,514.93h-.22c-34.4-3.89-53-19.72-62.58-32.31-10.13-13.35-13.27-27.2-13.27-30.73a2,2,0,0,1,2-2h0a2,2,0,0,1,2,2c0,1.85,2.29,14.92,12.46,28.31,9.09,12,26.85,27,59.84,30.75a2,2,0,0,1-.23,4Z"/><path class="cls-3" d="M425.36,456.12h-.07c-2.34-.08-15.54-2.31-32.66-11.1-15.05-7.73-37-22.63-56-49.72a2,2,0,1,1,3.27-2.3c37.35,53.3,85,59.1,85.49,59.12a2,2,0,0,1-.07,4Z"/><path class="cls-3" d="M343.89,453a2,2,0,0,1-2-1.76L310.73,184.73a2,2,0,1,1,4-.46l31.16,266.47a2,2,0,0,1-1.75,2.22Z"/><path class="cls-3" d="M605.74,808.92a2,2,0,0,1-2-2V765a2,2,0,0,1,4,0v41.92A2,2,0,0,1,605.74,808.92Z"/><path class="cls-3" d="M638.4,808.92a2,2,0,0,1-2-2V765a2,2,0,0,1,4,0v41.92A2,2,0,0,1,638.4,808.92Z"/></g></g></svg>